<svg width="20" height="20" viewBox="0 0 20 20" fill="none" xmlns="http://www.w3.org/2000/svg">
<path fill-rule="evenodd" clip-rule="evenodd" d="M17.4323 10C17.4323 10.34 17.4023 10.66 17.3622 10.98L19.476 12.63C19.6663 12.78 19.7164 13.05 19.5962 13.27L17.5926 16.73C17.5025 16.89 17.3322 16.98 17.1619 16.98C17.1018 16.98 17.0416 16.97 16.9815 16.95L14.4871 15.95C13.9662 16.34 13.4052 16.68 12.7941 16.93L12.4134 19.58C12.3834 19.82 12.173 20 11.9226 20H7.91548C7.66503 20 7.45466 19.82 7.42461 19.58L7.04393 16.93C6.43285 16.68 5.87185 16.35 5.35093 15.95L2.85651 16.95C2.80642 16.97 2.74632 16.98 2.68621 16.98C2.50589 16.98 2.33559 16.89 2.24543 16.73L0.241879 13.27C0.121666 13.05 0.171755 12.78 0.362092 12.63L2.47584 10.98C2.43577 10.66 2.40571 10.33 2.40571 10C2.40571 9.67 2.43577 9.34 2.47584 9.02L0.362092 7.37C0.171755 7.22 0.111648 6.95 0.241879 6.73L2.24543 3.27C2.33559 3.11 2.50589 3.02 2.67619 3.02C2.7363 3.02 2.79641 3.03 2.85651 3.05L5.35093 4.05C5.87185 3.66 6.43285 3.32 7.04393 3.07L7.42461 0.42C7.45466 0.18 7.66503 0 7.91548 0H11.9226C12.173 0 12.3834 0.18 12.4134 0.42L12.7941 3.07C13.4052 3.32 13.9662 3.65 14.4871 4.05L16.9815 3.05C17.0316 3.03 17.0917 3.02 17.1518 3.02C17.3322 3.02 17.5025 3.11 17.5926 3.27L19.5962 6.73C19.7164 6.95 19.6663 7.22 19.476 7.37L17.3622 9.02C17.4023 9.34 17.4323 9.66 17.4323 10ZM15.4288 10C15.4288 9.79 15.4188 9.58 15.3787 9.27L15.2385 8.14L16.13 7.44L17.2019 6.59L16.5007 5.38L15.2284 5.89L14.1666 6.32L13.2549 5.62C12.8542 5.32 12.4535 5.09 12.0228 4.91L10.9609 4.48L10.8006 3.35L10.6103 2H9.21778L9.01743 3.35L8.85714 4.48L7.79526 4.91C7.38453 5.08 6.97381 5.32 6.54304 5.64L5.64145 6.32L4.5996 5.9L3.32735 5.39L2.6261 6.6L3.70802 7.44L4.5996 8.14L4.45935 9.27C4.4293 9.57 4.40926 9.8 4.40926 10C4.40926 10.2 4.4293 10.43 4.45935 10.74L4.5996 11.87L3.70802 12.57L2.6261 13.41L3.32735 14.62L4.5996 14.11L5.66148 13.68L6.5731 14.38C6.97381 14.68 7.37452 14.91 7.80528 15.09L8.86716 15.52L9.02745 16.65L9.21778 18H10.6203L10.8206 16.65L10.9809 15.52L12.0428 15.09C12.4535 14.92 12.8642 14.68 13.295 14.36L14.1966 13.68L15.2385 14.1L16.5107 14.61L17.212 13.4L16.13 12.56L15.2385 11.86L15.3787 10.73C15.4088 10.43 15.4288 10.21 15.4288 10ZM9.91903 6C7.7051 6 5.91193 7.79 5.91193 10C5.91193 12.21 7.7051 14 9.91903 14C12.1329 14 13.9261 12.21 13.9261 10C13.9261 7.79 12.1329 6 9.91903 6ZM7.91548 10C7.91548 11.1 8.81707 12 9.91903 12C11.021 12 11.9226 11.1 11.9226 10C11.9226 8.9 11.021 8 9.91903 8C8.81707 8 7.91548 8.9 7.91548 10Z" fill="#333333"/>
</svg>
