<svg width="12" height="20" viewBox="0 0 12 20" fill="none" xmlns="http://www.w3.org/2000/svg">
<path fill-rule="evenodd" clip-rule="evenodd" d="M9.33331 0.833344H2.66665C1.51665 0.833344 0.583313 1.76668 0.583313 2.91668V17.0833C0.583313 18.2333 1.51665 19.1667 2.66665 19.1667H9.33331C10.4833 19.1667 11.4166 18.2333 11.4166 17.0833V2.91668C11.4166 1.76668 10.4833 0.833344 9.33331 0.833344ZM5.99998 18.3333C5.30831 18.3333 4.74998 17.775 4.74998 17.0833C4.74998 16.3917 5.30831 15.8333 5.99998 15.8333C6.69165 15.8333 7.24998 16.3917 7.24998 17.0833C7.24998 17.775 6.69165 18.3333 5.99998 18.3333ZM2.24998 15H9.74998V3.33334H2.24998V15Z" fill="#333333"/>
</svg>
