<svg width="18" height="12" viewBox="0 0 18 12" fill="none" xmlns="http://www.w3.org/2000/svg">
<path fill-rule="evenodd" clip-rule="evenodd" d="M9.41669 3.08334C9.41669 4.69167 8.10835 6.00001 6.50002 6.00001C4.89169 6.00001 3.58335 4.69167 3.58335 3.08334C3.58335 1.47501 4.89169 0.166672 6.50002 0.166672C8.10835 0.166672 9.41669 1.47501 9.41669 3.08334ZM7.75002 3.08334C7.75002 2.39167 7.19169 1.83334 6.50002 1.83334C5.80835 1.83334 5.25002 2.39167 5.25002 3.08334C5.25002 3.775 5.80835 4.33334 6.50002 4.33334C7.19169 4.33334 7.75002 3.775 7.75002 3.08334ZM6.50002 7.45834C4.55002 7.45834 0.666687 8.43334 0.666687 10.375V11.8333H12.3334V10.375C12.3334 8.43334 8.45002 7.45834 6.50002 7.45834ZM6.50002 9.12501C5.00835 9.12501 3.31669 9.68334 2.61669 10.1667H10.3834C9.68335 9.68334 7.99169 9.12501 6.50002 9.12501ZM12.3667 7.50834C13.3334 8.20834 14 9.14167 14 10.375V11.8333H17.3334V10.375C17.3334 8.69167 14.4167 7.73334 12.3667 7.50834ZM14.4167 3.08334C14.4167 4.69167 13.1084 6.00001 11.5 6.00001C11.05 6.00001 10.6334 5.89167 10.25 5.70834C10.775 4.96667 11.0834 4.05834 11.0834 3.08334C11.0834 2.10834 10.775 1.20001 10.25 0.458338C10.6334 0.275005 11.05 0.166672 11.5 0.166672C13.1084 0.166672 14.4167 1.47501 14.4167 3.08334Z" fill="#333333"/>
</svg>
